<?xml version="1.0" encoding="utf-8"?>
<!-- Generator: Adobe Illustrator 17.0.0, SVG Export Plug-In . SVG Version: 6.00 Build 0)  -->
<!DOCTYPE svg PUBLIC "-//W3C//DTD SVG 1.1//EN" "http://www.w3.org/Graphics/SVG/1.1/DTD/svg11.dtd">
<svg version="1.1" id="Layer_1" xmlns="http://www.w3.org/2000/svg" xmlns:xlink="http://www.w3.org/1999/xlink" x="0px" y="0px"
	 width="838px" height="862px" viewBox="0 0 838 862" enable-background="new 0 0 838 862" xml:space="preserve">
<g id="Layer_1_1_">
</g>
<g id="Layer_2">
	<g>
		<path fill="#9F9EA0" d="M51.727,510.853c-12.8,17.048-18.237,17.328-26.089,27.837c17.867,33.637,27.824,49.425,27.328,73.597
			c21.023,3.659,17.867-3.174,39.335,0C71.281,573.277,51.727,510.853,51.727,510.853z"/>
		<path fill="#6E6D6E" d="M92.3,603.585c-12.262-1.437-23.842,1.304-35.971,0.327c-2.215-23.088-12.754-43.087-23.73-63.457
			c6.941-7.403,14.71-13.975,21.059-22.093c3.044-3.889,0.456-20.549-3.867-15.022c-7.932,10.136-18.111,17.845-26.089,27.838
			c-2.571,3.221-2.661,10.121-0.776,13.665c11.196,20.977,26.09,42.868,26.208,67.442c0.011,2.549,0.42,8.212,3.831,8.703
			c13.371,1.903,25.942-1.565,39.335,0C97.309,621.574,97.999,604.249,92.3,603.585z"/>
		<path fill="#9F9EA0" d="M321.523,829.85c15.023,0,56.235,2.1,86.72,8.409c11.594-19.192,6.779-24.732,12.028-31.756
			c-31.532-2.101-78.246-14.495-105.071-15.723C315.042,797.266,321.448,809.522,321.523,829.85z"/>
		<path fill="#6E6D6E" d="M418.34,798.984c-2.775,4.445-4,8.758-4.923,13.889c-3.221,17.928-11.525,15.249-26.682,13.08
			c-20.531-2.937-41.457-4.459-62.217-4.732c-1.59-11.055-4.916-21.712-5.623-32.76c-0.762-11.82-7.871-2.963-7.386,4.628
			c0.801,12.484,5.749,24.031,6.183,36.761c0.075,2.168,0.409,8.682,3.831,8.699c28.979,0.212,58.279,2.844,86.72,8.409
			c1.336,0.266,2.251-1.741,2.707-2.549c5.239-9.325,5.896-21.82,11.253-30.395C424.799,809.86,421.858,793.355,418.34,798.984z"/>
		<path fill="#9F9EA0" d="M135.85,723.554c17.871,5.655,62.509,44.282,78.186,60.045c9.641-10.93,20.247-20.652,29.105-25.852
			c-30.096-7.451-83.725-57.472-98.282-72.871C145.463,697.766,141.711,704.904,135.85,723.554z"/>
		<path fill="#6E6D6E" d="M242.125,749.352c-2.194,1.408-29.917,23.013-28.093,24.818c-7.472-7.407-15.4-14.362-23.36-21.238
			c-14.358-12.398-30.376-27.26-48.125-35.403c3.397-10.632,6.258-21.116,6.144-32.652c-0.108-10.319-7.767-10.359-7.663,0
			c0.126,11.917-4.887,23.108-8.484,34.283c-0.854,2.653-1.343,11.457,2.291,12.789c28.829,10.531,55.848,37.935,77.266,59.166
			c1.396,1.386,2.478,1.529,3.867,0c8.538-9.39,17.475-18.104,28.189-24.979C248.746,763.201,246.667,746.44,242.125,749.352z"/>
		<path fill="#9F9EA0" d="M70.832,289.578c-15.942,11.465-18.918,11.009-36.786,11.009c-4.208,16.818-9.465,62.045-16.818,69.402
			c4.323,6.211,18.919,16.753,25.03,38.22C44,384.117,54.89,301.043,70.832,289.578z"/>
		<path fill="#6E6D6E" d="M69.816,281.184c-12.086,8.459-21.152,10.707-35.77,10.703c-1.964,0-2.962,2.833-3.303,4.309
			c-2.453,10.456-4.122,21.087-6.011,31.651c-1.835,10.301-2.722,26.111-9.44,34.627c-2.804,3.551-2.775,11.468,0,15.026
			c9.149,11.733,18.779,20.278,23.659,35.1c3.544,10.767,8.427-3.271,6.61-8.786c-4.696-14.269-12.52-23.984-21.231-34.831
			c8.248-17.3,8.653-41.475,12.125-59.744c14.151-0.24,23.16-2.711,35.396-11.271C76.344,294.824,74.1,278.189,69.816,281.184z"/>
		<path fill="#9F9EA0" d="M731.988,647.646c10.509,1.228,25.069,1.339,42.368,6.129c4.205-16.172,16.496-84.602,50.132-115.086
			c-10.596-6.384-18.003-7.572-28.513-26.466C797.153,538.688,731.988,647.646,731.988,647.646z"/>
		<path fill="#6E6D6E" d="M825.508,530.294c-12.111-6.983-20.259-13.231-27.598-25.583c-3.35-5.626-6.362,10.837-3.871,15.027
			c5.745,9.665,11.803,15.729,19.688,21.22c-23.676,29.127-32.541,67.625-41.485,103.632c-13.325-3.12-26.643-4.266-40.254-5.648
			c-5.07-0.51-5.67,16.833,0,17.403c14.333,1.454,28.337,2.625,42.368,6.133c1.839,0.464,3.038-3.234,3.308-4.309
			c9.698-38.609,17.862-82.368,47.845-111.093C828.829,543.896,830.298,533.059,825.508,530.294z"/>
		<path fill="#9F9EA0" d="M141.786,170.939c-7.889-11.576-6.194-24.771-14.05-34.297c23.673-5.62,49.78-37.845,68.135-58.34
			c18.358,13.142,32.588,17.763,32.588,17.763L141.786,170.939z"/>
		<path fill="#6E6D6E" d="M229.479,87.675c-11.734-4.018-22.438-10.79-32.588-17.763c-1.156-0.793-2.204,0.032-2.951,0.876
			c-18.499,20.796-38.305,48.871-66.203,57.147c-5.576,1.655-4.381,12.51-1.936,16.219c6.567,9.932,7.411,22.542,13.278,32.937
			c4.678,8.287,7.831-8.036,5.418-12.305c-4.047-7.152-5.96-14.948-8.614-22.492c16.287-7.289,29.167-20.581,41.36-33.496
			c3.677-3.899,7.221-7.928,10.782-11.936c6.643-7.468,8.047-9.105,17.268-3.278c6.872,4.344,14.434,8.229,22.146,10.869
			C233.296,106.458,234.24,89.302,229.479,87.675z"/>
		<path fill="#9F9EA0" d="M779.212,214.535c13.665,18.283,3.299,27.744,26.914,49.819c6.801,22.071-0.56,49.945,18.362,66.49
			c-5.257,21.798-8.089,5.813-24.907,22.793c-6.984-30.38-42.523-125.854-56.189-139.103
			C774.923,223.357,754.863,214.952,779.212,214.535z"/>
		<path fill="#6E6D6E" d="M826.42,323.332c-14.926-14.969-11.296-35.212-14.929-54.275c-1.982-10.427-4.676-12.937-11.645-20.973
			c-6.008-6.926-7.724-15.432-10.15-23.935c-3.541-12.401-7.171-19.895-20.531-17.31c-2.503,0.485-4.266,2.284-6.557,2.923
			c-5.36,1.501-14.309-2.589-19.217-3.928c-4.291-1.174-5.81,15.816,0,17.404c7.677,2.093,16.384,6.309,23.734,1.831
			c14.961-9.106,17.963,16.729,21.353,25.633c2.384,6.266,6.829,11.63,11.156,16.617c7.468,8.614,6.204,21.418,7.181,32.293
			c1.081,12.097,4.018,23.475,10.963,33.037c-4.844,5.256-13.023,6.916-19.214,12.592c-4.093,3.759-1.382,19.92,2.032,16.786
			c5.932-5.443,10.98-7.742,18.412-10.104c5.785-1.838,7.501-11.935,8.79-16.688C828.65,332.083,829.008,325.926,826.42,323.332z"/>
		<path fill="#9F9EA0" d="M624.773,61.396c18.919,14.714,27.855,39.504,46.774,42.656c2.101,29.432,1.645,32.588,1.645,32.588
			s-63.205-46.125-84.914-54.412C610.059,81.978,615.143,65.784,624.773,61.396z"/>
		<path fill="#6E6D6E" d="M675.239,101.741c-0.166-2.399-1.081-5.724-3.691-6.391c-19.91-5.066-30.714-29.658-45.759-42.344
			c-0.675-0.417-1.354-0.417-2.032,0c-13.41,7.655-18.096,19.234-35.479,20.523c-5.615,0.413-5.178,17.788,0,17.403
			c8.068-0.6,14.341-2.359,21.084-6.922c7.853-5.307,11.285-17.719,21.033-8.269c12.74,12.348,20.61,29.812,37.816,35.985
			c0.453,6.549,0.873,13.098,1.117,19.655c0.039,0.977-0.252,7.048,0.172,2.944c-0.793,7.666,6.165,16.398,7.386,4.628
			C678.147,126.799,676.083,113.825,675.239,101.741z"/>
		<path fill="#9F9EA0" d="M566.699,814.518c14.484-17.87,59.065-43.073,83.237-40.973c0.523-13.095-3.785-32.312,0-40.965
			c-32.582,21.026-83.237,43.134-109.944,55.995C553.883,792.449,560.714,801.656,566.699,814.518z"/>
		<path fill="#6E6D6E" d="M653.243,736.972c1.662-5.519-3.343-19.634-6.614-8.782c-3.587,11.902-1.702,24.397-0.865,36.688
			c-27.978,0.775-59.697,19.238-78.486,39.381c-6.054-11.202-13.386-19.701-26.265-24.078c-5.864-1.985-6.798,15.167-2.036,16.786
			c12.478,4.24,19.271,11.992,25.019,23.705c1.038,2.118,2.766,3.512,4.64,1.357c18.193-20.977,53.04-40.844,81.302-39.78
			c3.356,0.125,3.823-6.657,3.827-8.704C653.799,761.962,649.889,748.099,653.243,736.972z"/>
		<path fill="#9F9EA0" d="M359.917,50.175c8.908-11.68,2.277-14.582,10.485-30.735c28.365,5.853,46.304,0.524,77.355-8.409
			c0,11.034,25.737,34.423,25.737,34.423L359.917,50.175z"/>
		<path fill="#6E6D6E" d="M474.51,37.063c-7.12-6.539-21.669-18.323-23.062-28.344c-0.172-1.228-1.224-7.099-3.69-6.388
			c-26.15,7.512-50.136,13.393-77.355,8.409c-1.282-0.237-2.331,1.706-2.708,2.549c-4.072,9.142-4.226,21.138-9.709,29.375
			c-2.725,4.086,0.122,20.646,3.864,15.023c2.991-4.484,5.069-8.495,6.441-13.716c0.865-3.292,0.926-6.84,1.572-10.165
			c1.426-7.404,13.439-3.712,17.569-3.368c19.783,1.638,39.561-4.686,58.357-10.136c4.682,13.36,16.6,24.279,26.688,33.547
			C475.889,56.98,478.604,40.822,474.51,37.063z"/>
		<path fill="#B5B6B6" d="M806.126,424.388c0,211.032-171.076,382.116-382.109,382.116c-211.04,0-382.117-171.084-382.117-382.116
			c0-211.035,171.077-382.111,382.117-382.111C635.049,42.276,806.126,213.354,806.126,424.388z"/>
		<path fill="#C8C8CB" d="M767.775,381.418c0,176.748-143.275,320.015-320.015,320.015c-176.75,0-320.024-143.268-320.024-320.015
			c0-176.742,143.275-320.021,320.024-320.021C624.5,61.396,767.775,204.674,767.775,381.418z"/>
		<path fill="#D8D8DE" d="M732.958,330.845c0,143.297-116.17,259.456-259.459,259.456c-143.301,0-259.463-116.159-259.463-259.456
			c0-143.293,116.162-259.459,259.463-259.459C616.788,71.385,732.958,187.552,732.958,330.845z"/>
		<path fill="#6E6D6E" d="M581.169,67.137C440.142,2.887,267.421,33.82,156.755,141.896
			c-109.8,107.229-145.81,270.082-96.282,414.698c49.77,145.333,186.847,247.306,339.191,257.844
			c106.784,7.39,215.104-32.843,291.609-107.563c76.238-74.454,118.012-176.153,118.68-282.488
			C808.995,271.427,720.993,130.835,581.169,67.137z M532.337,782.228c-155.156,46.824-325.583-14.557-419.039-145.609
			C15.38,499.301,27.695,310.928,135.664,183.401C241.155,58.803,420.677,18.413,570.667,80.243
			c138.051,56.915,230.691,195.163,231.632,344.145C801.26,589.029,689.418,734.824,532.337,782.228z"/>
		<path fill="#B5B6B6" d="M495.633,187.781c-23.852-1.96-21.708,27.238,3.078,29.295
			C523.497,219.13,519.493,189.738,495.633,187.781z"/>
		<path fill="#B5B6B6" d="M474.999,314.098c-28.293-1.174-27.464,42.94,1.451,43.669
			C505.368,358.496,503.282,315.28,474.999,314.098z"/>
		<path fill="#B5B6B6" d="M620.245,337.473c-19.838-2.05-17.41,38.25,2.381,39.255C642.414,377.725,640.09,339.526,620.245,337.473z
			"/>
		<path fill="#B5B6B6" d="M582.702,105.506c-19.076-2.811-14.631,21.142,4.617,24.323
			C606.572,133.007,601.779,108.321,582.702,105.506z"/>
		<path fill="#B5B6B6" d="M671.109,215.953c-16.861-3.526-11.26,26.524,5.351,29.892
			C693.073,249.212,687.974,219.475,671.109,215.953z"/>
		<path fill="#B5B6B6" d="M562.024,417.031c-24.136,0.349-25.461,44.458-1.4,43.003
			C584.684,458.587,586.163,416.678,562.024,417.031z"/>
		<path fill="#B5B6B6" d="M676.635,287.625c-16.527-2.912-12.255,31.547,4.043,33.823
			C696.976,323.72,693.17,290.536,676.635,287.625z"/>
		<path fill="#B5B6B6" d="M375.263,265.116c-28.793,0.93-30.438,45.173-1.084,44.685
			C403.536,309.309,404.056,264.174,375.263,265.116z"/>
		<path fill="#B5B6B6" d="M268.684,428.132c-22.793-0.66-20.869,40.046,1.874,41.81
			C293.301,471.686,291.473,428.789,268.684,428.132z"/>
		<path fill="#B5B6B6" d="M359.353,452.658c-28.29-0.373-26.839,44.01,1.131,45.112C388.459,498.874,387.64,453.033,359.353,452.658
			z"/>
		<path fill="#B5B6B6" d="M402.677,590.293c-27.576-0.276-25.949,33.626,0.424,33.909
			C429.474,624.49,430.25,590.573,402.677,590.293z"/>
		<path fill="#B5B6B6" d="M521.529,528.915c-25.723,2.201-28.692,39.827-3.608,37.328
			C543.005,563.748,547.249,526.718,521.529,528.915z"/>
		<path fill="#B5B6B6" d="M702.818,384.505c-14.596-0.456-14.528,34.594,0.064,34.217
			C717.474,418.345,717.41,384.967,702.818,384.505z"/>
		<path fill="#B5B6B6" d="M359.734,103.521c-21.296,1.594-24.617,25.084-2.603,23.285
			C379.141,125.004,381.03,101.93,359.734,103.521z"/>
		<path fill="#B5B6B6" d="M193.156,534.337c-17.967-3.336-12.688,28.322,5.415,31.967
			C216.674,569.956,211.12,537.677,193.156,534.337z"/>
		<path fill="#B5B6B6" d="M284.662,595.977c-22.883-3.167-17.508,27.472,4.847,30.606
			C311.861,629.725,307.545,599.141,284.662,595.977z"/>
		<path fill="#9F9EA0" d="M345.871,702.782c-22.915-1.221-20.279,22.721,1.781,23.816
			C369.713,727.688,368.797,704.007,345.871,702.782z"/>
		<path fill="#B5B6B6" d="M504.241,647.922c-23.199,2.358-25.892,28.552-3.476,26.376
			C523.177,672.118,527.439,645.563,504.241,647.922z"/>
		<path fill="#B5B6B6" d="M739.025,416.84c-13.999,0.244-14.998,33.474-0.901,32.563C752.217,448.486,753.025,416.6,739.025,416.84z
			"/>
		<path fill="#B5B6B6" d="M151.035,318.919c-15.521,2.205-18.175,35.529-2.861,34.067
			C163.498,351.522,166.564,316.712,151.035,318.919z"/>
		<path fill="#B5B6B6" d="M243.758,141.939c-19.181,3.351-24.686,29.651-5.354,26.054
			C257.733,164.396,262.943,138.594,243.758,141.939z"/>
		<path fill="#9F9EA0" d="M200.635,132.568c-18.046,3.178-23.098,29.339-5.146,25.859
			C213.443,154.941,218.678,129.387,200.635,132.568z"/>
		<path fill="#9F9EA0" d="M136.483,192.161c-16.413,3.142-20.944,31.558-4.894,28.391
			C147.646,217.385,152.899,189.026,136.483,192.161z"/>
		<path fill="#9F9EA0" d="M85.827,325.189c-14.37,1.673-16.309,33.062-2.162,31.96C97.805,356.047,100.2,323.509,85.827,325.189z"/>
		<path fill="#9F9EA0" d="M65.97,417.199c-13.938-0.115-13.371,31.137,0.646,31.851C80.642,449.762,79.906,417.322,65.97,417.199z"
			/>
		<path fill="#9F9EA0" d="M104.785,508.324c-14.732-2.061-11.482,29.02,3.565,31.536
			C123.398,542.38,119.517,510.382,104.785,508.324z"/>
		<path fill="#9F9EA0" d="M127.574,605.891c-16.029-3.109-11.652,25.151,4.761,28.189
			C148.744,637.121,143.599,608.99,127.574,605.891z"/>
		<path fill="#9F9EA0" d="M270.659,689.874c-20.1-3.027-15.364,21.378,4.398,24.071
			C294.824,716.638,290.762,692.897,270.659,689.874z"/>
		<path fill="#9F9EA0" d="M336.266,744.009c-20.388-1.544-17.738,20.869,2.176,22.154
			C358.352,767.441,356.657,745.557,336.266,744.009z"/>
		<path fill="#9F9EA0" d="M574.637,712.652c-19.328,2.83-23.177,26.086-4.054,23.658
			C589.708,733.88,593.965,709.819,574.637,712.652z"/>
		<path fill="#9F9EA0" d="M705.152,622.292c-16.204,3.034-21.185,30.553-4.567,27.684
			C717.206,647.113,721.356,619.262,705.152,622.292z"/>
		<path fill="#9F9EA0" d="M759.743,517.949c-14.566,1.789-17.975,32.366-3.013,30.276
			C771.696,546.147,774.313,516.161,759.743,517.949z"/>
		<path fill="#9F9EA0" d="M783.251,393.647c-14.144-0.283-14.097,31.459,0.039,31.23
			C797.423,424.646,797.39,393.927,783.251,393.647z"/>
		<path fill="#C8C8CB" d="M353.845,201.109c-9.458-6.478-32.322-23.475-32.322-23.475s21.307,62.871-43.618,106.234
			c-79.496,53.094-97.754,5.709-97.754,5.709c6.718,26.8-4.362,51.45,6.506,59.316C232.064,381.762,400.092,232.789,353.845,201.109
			z"/>
		<path fill="#D8D8DE" d="M353.845,201.109c-9.458-6.478-32.322-23.475-32.322-23.475s33.396,75.696-69.898,119.825
			c-37.589,25.228-35.026,46.638-36.713,54.814C256.095,351.069,400.092,232.789,353.845,201.109z"/>
		<path fill="#D8D8DE" d="M190.665,308.496c20.556,25.13,180.896-47.468,130.858-130.862c-28.376-47.299-91.445,9.458-113.52,33.108
			C185.932,234.395,162.281,273.809,190.665,308.496z"/>
		<path fill="#C8C8CB" d="M190.665,308.496c20.556,25.13,180.896-47.468,130.858-130.862
			C293.147,130.336,162.281,273.809,190.665,308.496z"/>
		<path fill="#B5B6B6" d="M190.665,308.496c20.556,25.13,180.896-47.468,130.858-130.862
			C317.545,269.607,214.036,284.085,190.665,308.496z"/>
		<path fill="#6E6D6E" d="M354.255,197.753c-10.789-7.433-21.299-15.282-31.809-23.095c-5.569-8.492-13.407-15.235-23.432-17.982
			c-23.073-6.309-49.485,13.752-66.031,26.991c-31.687,25.342-65.316,65.797-54.121,105.854c-0.111,0.679-0.136,1.333-0.032,1.813
			c3.343,15.321,0.869,30.143,1.318,45.55c0.168,5.946,1.609,11.342,6.104,15.364c1.396,1.257,2.467-5.228,0.815-6.71
			c-7.282-6.528-3.378-23.109-3.095-31.672c0.144-4.194-0.007-8.355-0.391-12.496c1.677,3.264,3.666,6.513,6.036,9.741
			c1.25,3.989,2.786,7.81,4.951,11.415c3.993,6.65,6.015,10.319,2.895,18.197c-0.7,1.77,0.801,8.37,2.165,4.922
			c2.341-5.914,3.68-11.619,2.315-17.928c-0.933-4.301-3.354-8.143-5.666-12.05c8.165,3.07,18.851,0.865,26.646-0.836
			c19.36-4.23,37.755-13.375,54.39-23.91c31.303-19.816,60.634-52.505,54.333-92.08c-0.672-4.208-1.795-8.435-3.325-12.521
			c8.294,6.154,16.614,12.287,25.12,18.146C355.171,205.659,356.057,198.995,354.255,197.753z M327.462,225.087
			c-8.323,31.895-40.85,54.842-68.437,69.165c-13.871,7.196-53.195,26.635-67.593,11.239
			c-36.692-49.356,22.757-104.396,62.494-129.555c15.852-10.04,36.075-18.133,53.97-8.761c7.185,3.763,14.168,14.265,14.405,14.696
			C329.052,193.979,330.819,212.198,327.462,225.087z"/>
		<path fill="#EDEDF1" d="M507.573,112.993c27.012,14.406-69.374,88.289-111.943,56.757c-42.57-31.533,36.635-55.184,56.156-56.757
			C471.307,111.413,483.922,100.375,507.573,112.993z"/>
		<path fill="#D8D8DE" d="M507.573,112.993c27.012,14.406-69.374,88.289-111.943,56.757
			C367.777,129.807,481.294,112.993,507.573,112.993z"/>
		<path fill="#B5B6B6" d="M507.573,112.993c27.012,14.406-69.374,88.289-111.943,56.757
			C470.317,162.935,517.63,129.807,507.573,112.993z"/>
		<path fill="#6E6D6E" d="M525.227,130.13c-4.718-3.023-8.38-8.158-11.367-13.21c-0.769-2.736-2.6-5.228-5.878-7.289
			c-20.804-9.788-38.348-2.665-59.854,0.323c-15.092,2.097-30.316,7.644-43.853,14.456c-13.784,6.933-21.644,17.411-21.486,27.942
			c-0.244,0.158-0.474,0.38-0.635,0.747c-0.679,1.544-0.542,3.368,0,4.923c2.305,6.582,5.641,16.097,3.5,23.044
			c-0.682,2.208,1.307,7.845,2.646,3.515c1.731-5.616,1.229-12-0.097-18.19c2.84,3.526,6.793,6.865,12.061,9.842
			c28.075,15.874,68.139-6.021,90.242-22.998c6.094-4.675,19.691-17.077,23.045-28.301c2.947,4.65,6.448,9.084,10.861,11.906
			C526.229,138.008,527.062,131.305,525.227,130.13z M469.703,159.691c-19.968,11.253-46.573,20.079-68.627,9.831
			c-38.735-18.007,6.646-40.943,25.791-47.342c9.724-3.25,19.533-5.062,29.666-6.283c19.407-2.338,31.184-8.704,50.634,0.449
			C522.621,126.049,476.284,155.982,469.703,159.691z"/>
		<path fill="#C8C8CB" d="M163.857,447.241c0-39.413-23.651-59.91-39.414-7.878C108.673,491.387,163.857,486.655,163.857,447.241z"
			/>
		<path fill="#B5B6B6" d="M163.857,447.241c0-39.413-17.885-52.13-32.061-6.833C116.555,489.132,163.857,486.655,163.857,447.241z"
			/>
		<path fill="#9F9EA0" d="M163.857,447.241c0-39.413-9.903-52.481-25.228-4.337C123.916,489.132,163.857,486.655,163.857,447.241z"
			/>
		<path fill="#6E6D6E" d="M167.57,397.272c0.937-1.716-0.349-8.254-2.169-4.922c-1.734,3.178-3.576,5.88-6.894,7.482
			c-3.566,1.72-7.16,3.099-10.585,5.131c-0.614-0.09-1.21-0.223-1.871-0.229c-7.938-0.075-13.289,9.831-16.355,15.712
			c-5.608,10.76-9.324,23.457-9.619,35.614c-0.272,11.066,4.984,22.345,15.264,24.553c0.04,0.021,0.062,0.068,0.101,0.082
			c3.06,0.98,6.362,1.3,9.364,2.381c3.749,1.347,6.334,6.064,8.531,9.062c1.638,2.23,2.718-4.42,1.548-6.011
			c-1.774-2.42-3.623-5.317-5.942-7.486c11.148-5.497,16.215-19.406,16.444-31.399c-0.093-9.123-1.378-30.128-10.352-38.709
			c1.752-0.786,3.508-1.562,5.228-2.46C163.742,404.259,165.76,400.586,167.57,397.272z M162.328,447.241
			c-0.233,12.086-7.339,23.759-19.655,26.499c-11.73,2.61-19.367-6.697-19.536-17.681c-0.154-10.455,4.272-21.464,8.725-30.688
			c2.718-5.637,7.292-12.998,14.19-13.676c0.618-0.061,1.182,0.008,1.756,0.054c0.229,0.144,0.481,0.198,0.769,0.022l0,0
			C160.608,413.746,162.241,439.251,162.328,447.241z"/>
		<path fill="#D8D8DE" d="M346.751,343.186c-23.647,3.152-31.245-14.032-29.712-6.309c-1.296,3.745,0.125,6.309-7.149,13.619
			c2.567,27.632-47.388,52.816-66.906,30.921c-0.887,1.462-0.524,21.567,4.965,30.224
			C275.01,454.311,346.751,343.186,346.751,343.186z"/>
		<path fill="#D8D8DE" d="M245.844,387.331c8.463,16.921,67.797-6.308,66.221-36.261c11.038-7.885,7.917-36.268-33.094-7.885
			C237.96,371.565,236.383,368.413,245.844,387.331z"/>
		<path fill="#C8C8CB" d="M245.844,387.331c8.463,16.921,67.797-6.308,66.221-36.261
			C323.103,343.186,236.383,368.413,245.844,387.331z"/>
		<path fill="#B5B6B6" d="M245.844,387.331c8.305,16.606,65.629-5.464,66.246-34.612C309.585,354.47,282.224,387.01,245.844,387.331
			z"/>
		<path fill="#6E6D6E" d="M346.751,339.703c-9.853,1.11-18.725-0.887-26.75-6.7c-1.038-0.758-1.874-1.092-2.546-1.117
			c-8.775-16.977-53.298,17.755-59.531,21.985c-13.242,8.973-19.709,15.152-16.6,27.123c-0.829,3.946-0.176,8.528,0.137,12.33
			c0.589,7.303,1.989,14.933,5.716,21.32c1.311,2.25,2.524-4.327,1.544-6.007c-2.506-4.297-3.354-9.404-4-14.265
			c-0.19-1.415-0.517-3.925-0.7-6.172c0.248,0.531,0.463,1.041,0.743,1.59c0.083,0.18,0.169,0.31,0.259,0.435
			c0.015,0.036,0.029,0.075,0.047,0.111c11.199,18.186,46.175-3.289,56.171-12.401c6.696-6.104,12.355-15.159,12.355-24.516
			c0-0.506,3.82-5.25,4.377-6.729c0.861-2.305,1.066-4.704,1.023-7.117c0.061,0.051,0.129,0.094,0.194,0.137
			c1.863,1.368,3.792,2.585,5.846,3.651c6.692,3.487,14.323,4.137,21.716,3.304C349.027,346.406,348.761,339.479,346.751,339.703z
			 M314.238,345.044c-0.869,1.39-2.607,2.083-3.253,3.565c-1.555,3.519-0.776,7.659-2.291,11.396
			c-3.433,8.492-11.655,14.704-19.099,19.472c-8.951,5.73-34.757,17.786-42.882,4.969c-2.952-5.845-5.638-9.959,0-15.076
			c6.337-5.752,14.114-10.205,21.174-14.977c10.915-7.375,21.561-15.949,34.494-19.447
			C309.265,333.085,319.818,336.061,314.238,345.044z"/>
		<path fill="#C8C8CB" d="M209.583,645.903c15.763-4.732,12.499-42.569-13.461-42.569c-25.959,0-32.164,18.919-21.177,33.104
			C185.932,650.636,209.583,645.903,209.583,645.903z"/>
		<path fill="#B5B6B6" d="M209.583,645.903c12.926-4.732,7.185-26.275-15.63-32.509c-25.037-6.848-24.193,9.084-19.008,23.044
			C181.189,653.271,209.583,645.903,209.583,645.903z"/>
		<path fill="#9F9EA0" d="M209.583,645.903c15.763-4.732-52.257-42.569-34.638-9.465
			C183.376,652.288,209.583,645.903,209.583,645.903z"/>
		<path fill="#6E6D6E" d="M236.189,644.869c-5.576-4.322-10.919-6.735-16.686-6.757c1.767-6.262,1.214-13.705-0.226-19.217
			c-4.273-16.392-19.433-21.49-34.395-17.525c2.409-6.087,2.488-12.252-1.583-19.017c-0.852-1.414-1.899,0.496-2.094,1.246
			c-0.402,1.569-0.294,3.364,0.55,4.765c1.073,1.781,2.395,3.867,1.957,6.036c-0.693,3.4-2.995,6.514-4.977,9.328
			c-11.289,6.219-12.826,21.21-6.905,32.183c7.103,13.146,24.193,16.057,37.751,13.472c0.083-0.011,0.14-0.093,0.215-0.129
			c0.068-0.011,0.119,0.028,0.19,0.007c2.327-0.844,4.18-2.176,5.662-3.827c7.052-1.325,13.203,1.088,19.723,6.146
			C236.965,652.813,237.938,646.224,236.189,644.869z M184.944,640.363c-14.276-5.63-18.423-23.163-3.799-30.703
			c11.185-5.763,25.957-3.547,33.004,7.084c4.086,6.173,6.417,17.195,0.323,22C202.194,648.424,192.072,643.171,184.944,640.363z"/>
		<path fill="#C8C8CB" d="M383.238,734.196c-10.079-21.859,113.236-42.57,129.035,0c15.798,42.569-55.151,31.532-75.65,25.23
			C416.124,753.118,399.223,768.881,383.238,734.196z"/>
		<path fill="#B5B6B6" d="M383.238,734.196c25.005-19.048,120.367-10.643,129.035,0c15.798,42.569-55.151,31.532-75.65,25.23
			C416.124,753.118,399.223,768.881,383.238,734.196z"/>
		<path fill="#9F9EA0" d="M383.238,734.196c53.385,25.23,124.432,24.789,129.035,0c15.798,42.569-55.151,31.532-75.65,25.23
			C416.124,753.118,399.223,768.881,383.238,734.196z"/>
		<path fill="#6E6D6E" d="M532.546,760.336c-1.246-4.021-1.771-8.661-4.273-12.169c-2.696-3.784-8.208-3.371-12.434-2.818
			c0.201-4.503-0.83-9.738-3.411-15.795c-1.376-3.221-3.602-6.09-6.492-8.625c-0.979-3.439-1.271-6.553,1.864-9.037
			c1.917-1.516,4.387-2.173,6.75-2.597c2.305-0.405,1.899-7.292,0-6.962c-3.863,0.689-7.508,2.047-9.957,5.257
			c-2.227,2.916-2.747,6.704-2.471,10.435c-26.778-17.784-91.132-15.092-113.214,1.382c-3.156-9.701-9.203-24.527-21.178-22.538
			c-2.305,0.388-1.921,7.282,0,6.962c10.061-1.673,15.307,9.627,18.212,18.129c-14.829,8.111,2.064,25.052,5.163,28.495
			c0.018,0.101,0.028,0.208,0.05,0.306c0.33,1.547,3.738,15.594-0.699,14.696c-1.857-0.374-2.32,6.491,0,6.962
			c1.866,0.373,3.273-1.713,3.941-3.106c2.064-4.33,1.699-9.845,0.83-14.979c6.283,4.973,14.078,7.105,25.091,6.876
			c16.24-0.349,32.286,6,48.537,7.415c18.948,1.651,39.708-2.338,45.45-16.219c0.082,0.018,0.15,0.093,0.244,0.082
			c3.472-0.478,9.12-1.587,11.902,1.351c2.259,2.388,2.518,7.009,3.451,10.014C531.246,768.181,533.227,762.547,532.546,760.336z
			 M491.067,761.302c-11.411,1.863-23.461,0.545-34.811-1.096c-9.968-1.433-19.58-5.099-29.594-5.913
			c-6.133-0.496-12.28,0.251-18.424-0.32c-12.301-1.148-20.764-10.29-23.065-21.102c-0.805-3.76,2.683-6.818,4.323-7.87
			c12.459-8.029,46.143-11.278,50.218-11.612c21.579-1.773,50.95-1.109,66.953,15.767
			C522.01,745.327,506.987,758.705,491.067,761.302z"/>
		<path fill="#EDEDF1" d="M597.445,236.452c22.075-2.058,24.337-43.841-12.614-43.841c-19.353,0-11.037,30.747-7.885,35.475
			C580.098,232.818,597.445,236.452,597.445,236.452z"/>
		<path fill="#D8D8DE" d="M597.445,236.452c22.075-2.058,1.472-41.26-12.614-43.841c-19.353,0-11.037,30.747-7.885,35.475
			C580.098,232.818,597.445,236.452,597.445,236.452z"/>
		<path fill="#B5B6B6" d="M597.445,236.452c22.075-2.058-20.448,0-12.614-43.841c-19.353,0-11.037,30.747-7.885,35.475
			C580.098,232.818,597.445,236.452,597.445,236.452z"/>
		<path fill="#6E6D6E" d="M614.87,214.176c-1.504-16.337-14.438-24.674-30.039-25.044c-3.992-0.097-6.89,1.174-8.976,3.278
			c-7.602,6.219-15.975,8.272-25.304,4.187c-2.183-0.952-2.725,5.878-0.814,6.714c7.788,3.407,15.02,2.951,21.712-0.646
			c-0.84,5.802-0.169,12.287,0.711,16.854c0.916,4.79,2.237,10.441,6.165,13.641c4.385,3.573,11.383,5.139,17.156,6.359
			c-1.229,1.224-2.402,2.495-3.332,3.989c-3.045,4.862-2.629,10.912-0.287,15.946c1.587,3.408,2.979-3.17,2.168-4.923
			c-3.292-7.069,7.207-11.809,10.553-17.022c0.019-0.029,0.025-0.062,0.04-0.09C612.156,232.871,615.711,223.271,614.87,214.176z
			 M597.445,232.973c-7.673-1.645-18.527-3.35-21.274-11.673c-3.102-9.4-4.779-24.52,8.66-25.206
			c11.372-0.578,23.512,5.221,26.643,16.761C614.066,222.419,606.805,231.727,597.445,232.973z"/>
		<path fill="#D8D8DE" d="M588.63,681.105c-11.723-6.808-26.659-9.975-38.486-8.398c41.388-49.665,102.485-185.658,138.746-206.548
			c11.612,4.126,17.43,31.36,18.923,37.845c-62.07,20.879-65.011,78.113-90.615,130.826
			C568.318,662.029,595.883,670.24,588.63,681.105z"/>
		<path fill="#C8C8CB" d="M588.63,681.105c-11.723-6.808-26.659-9.975-38.486-8.398c32.537-39.04,29.194-101.836,97.229-147.684
			c13.422-9.041,40.401-43.493,46.631-55.31c8.244,8.718,12.553,28.84,13.81,34.29c-62.07,20.879-65.011,78.113-90.615,130.826
			C568.318,662.029,595.883,670.24,588.63,681.105z"/>
		<path fill="#B5B6B6" d="M588.63,681.105c-4.735-2.754-10.006-4.908-15.378-6.398c-7.913-2.197,0.829-22.904,29.396-30.821
			C570.472,660.09,586.562,674.679,588.63,681.105z"/>
		<path fill="#C8C8CB" d="M707.812,504.004c34.596,1.149-31.055,183.245-94.371,186.046c-19.91,0.884-23.881-1.576-30.187-23.651
			c-6.309-22.071,28.377-12.609,39.414-55.18S660.51,502.428,707.812,504.004z"/>
		<path fill="#B5B6B6" d="M707.256,570.734c-17.752,52.692-56.196,117.649-93.814,119.315c-19.91,0.884-23.881-1.576-30.187-23.651
			c-6.309-22.071,28.377-12.609,39.414-55.18c4.754-18.341,12.438-41.069,23.422-60.871
			C642.382,639.595,669.31,636.438,707.256,570.734z"/>
		<path fill="#9F9EA0" d="M632.898,683.913c-6.435,3.67-12.958,5.846-19.457,6.137c-19.91,0.884-23.881-1.576-30.187-23.651
			c-3.809-13.317,7.308-15.159,19.146-23.866C587.963,679.799,612.422,681.105,632.898,683.913z"/>
		<path fill="#6E6D6E" d="M708.789,500.701c-2.818-12.596-6.743-32.447-19.489-37.891c-2.201-0.944-2.726,5.892-0.815,6.71
			c10.531,4.499,14.33,19.659,16.872,31.135c-27.375,1.367-45.794,22.38-58.986,44.813c-7.486,12.732-13.051,26.553-17.928,40.455
			c-6.204,17.684-8.355,36.847-22.703,50.258c-9.403,8.789-28.053,12.919-24.387,29.378c0.793,3.562,1.803,6.822,2.998,9.816
			c-10.668-4.969-22.402-7.411-34.207-6.146c-2.27,0.236-2.019,7.17,0,6.962c13.31-1.422,26.423,1.835,38.081,8.266
			c0.377,0.212,0.693,0.068,0.966-0.205c6.98,9.375,17.824,12.837,33.709,7.572c42.642-14.132,67.582-70.938,82.127-109.308
			C709.163,571.607,733.869,504.955,708.789,500.701z M696.261,593.944c-14,32.671-35.479,74.149-69.665,89.531
			c-7.73,3.482-16.318,3.551-24.616,2.973c-4.567-0.319-9.009-3.515-12.272-7.838c-0.123-0.266-0.273-0.463-0.453-0.632
			c-5.242-7.364-7.088-17.637-0.632-22.876c14.671-11.899,26.48-17.403,33.633-36.365c15.418-40.883,29.325-110.913,85.557-111.251
			C731.413,509.803,700.499,584.053,696.261,593.944z"/>
		<path fill="#B5B6B6" d="M597.893,566.394c-20.738,3.336-25.974,36.775-5.36,33.181
			C613.147,595.977,618.633,563.063,597.893,566.394z"/>
	</g>
</g>
</svg>
